<?xml version="1.0" encoding="UTF-8" standalone="no"?>
<svg xmlns="http://www.w3.org/2000/svg" xmlns:xlink="http://www.w3.org/1999/xlink" width="462.261mm" height="291.456mm" viewBox="4.000015 -291.455566 462.260742 291.455566">
    <rect transform="matrix(-1,0,0,1,235.188766,-145.486221)" style="stroke:#000000;stroke-width:0.050000mm;fill:none" x="-231.071976" y="-145.486237" width="462.143951" height="290.972473"/>
    <rect transform="matrix(-1,0,0,1,234.99324,-280.455566)" style="stroke:#000000;stroke-width:0.050000mm;fill:none" x="-230.993225" y="-11.000001" width="461.98645" height="22.000002"/>
    <rect transform="matrix(-1,0,0,1,235.260742,-258.455566)" style="stroke:#000000;stroke-width:0.050000mm;fill:none" x="-230.993225" y="-11.000001" width="461.98645" height="22.000002"/>
    <rect transform="matrix(-1,0,0,1,235.260742,-236.455566)" style="stroke:#000000;stroke-width:0.050000mm;fill:none" x="-230.993225" y="-11.000001" width="461.98645" height="22.000002"/>
    <rect transform="matrix(-1,0,0,1,235.260742,-214.455566)" style="stroke:#000000;stroke-width:0.050000mm;fill:none" x="-230.993225" y="-11.000001" width="461.98645" height="22.000002"/>
    <rect transform="matrix(-1,0,0,1,235.260742,-192.455566)" style="stroke:#000000;stroke-width:0.050000mm;fill:none" x="-230.993225" y="-11.000001" width="461.98645" height="22.000002"/>
    <rect transform="matrix(-1,0,0,1,235.260742,-170.455566)" style="stroke:#000000;stroke-width:0.050000mm;fill:none" x="-230.993225" y="-11.000001" width="461.98645" height="22.000002"/>
    <rect transform="matrix(-1,0,0,1,235.260742,-148.455566)" style="stroke:#000000;stroke-width:0.050000mm;fill:none" x="-230.993225" y="-11.000001" width="461.98645" height="22.000002"/>
    <rect transform="matrix(-1,0,0,1,235.260742,-126.455566)" style="stroke:#000000;stroke-width:0.050000mm;fill:none" x="-230.993225" y="-11.000001" width="461.98645" height="22.000002"/>
    <rect transform="matrix(-1,0,0,1,235.260742,-104.455566)" style="stroke:#000000;stroke-width:0.050000mm;fill:none" x="-230.993225" y="-11.000001" width="461.98645" height="22.000002"/>
    <rect transform="matrix(-1,0,0,1,235.260742,-82.455566)" style="stroke:#000000;stroke-width:0.050000mm;fill:none" x="-230.993225" y="-11.000001" width="461.98645" height="22.000002"/>
    <rect transform="matrix(-1,0,0,1,235.260742,-60.455566)" style="stroke:#000000;stroke-width:0.050000mm;fill:none" x="-230.993225" y="-11.000001" width="461.98645" height="22.000002"/>
    <rect transform="matrix(-1,0,0,1,235.260742,-38.455566)" style="stroke:#000000;stroke-width:0.050000mm;fill:none" x="-230.993225" y="-11.000001" width="461.98645" height="22.000002"/>
</svg>
