<?xml version="1.0" encoding="UTF-8" standalone="no"?>
<svg xmlns="http://www.w3.org/2000/svg" xmlns:xlink="http://www.w3.org/1999/xlink" width="264.387mm" height="285.522mm" viewBox="1.000000 -290.025391 264.386566 285.522034">
    <rect transform="matrix(-1,0,0,1,133.031219,-147.311798)" style="stroke:#000000;stroke-width:0.050000mm;fill:none" x="-132.031219" y="-142.491989" width="264.062439" height="284.983978"/>
    <rect transform="matrix(-1,0,0,1,254.386566,-147.379608)" style="stroke:#000000;stroke-width:0.050000mm;fill:none" x="-11" y="-142.612839" width="22" height="285.225677"/>
    <ellipse transform="matrix(-1,0,0,1,254.386566,-147.642883)" style="stroke:#000000;stroke-width:0.050000mm;fill:none" rx="5.5" ry="1.958838" cx="0" cy="0"/>
    <ellipse transform="matrix(-1,0,0,1,254.386566,-152.539978)" style="stroke:#000000;stroke-width:0.050000mm;fill:none" rx="5.5" ry="1.958838" cx="0" cy="0"/>
    <ellipse transform="matrix(-1,0,0,1,254.386566,-142.745789)" style="stroke:#000000;stroke-width:0.050000mm;fill:none" rx="5.5" ry="1.958838" cx="0" cy="0"/>
    <ellipse transform="matrix(-1,0,0,1,254.386566,-167.231262)" style="stroke:#000000;stroke-width:0.050000mm;fill:none" rx="5.5" ry="1.958838" cx="0" cy="0"/>
    <ellipse transform="matrix(-1,0,0,1,254.386566,-162.334183)" style="stroke:#000000;stroke-width:0.050000mm;fill:none" rx="5.5" ry="1.958838" cx="0" cy="0"/>
    <ellipse transform="matrix(-1,0,0,1,254.386566,-157.437073)" style="stroke:#000000;stroke-width:0.050000mm;fill:none" rx="5.5" ry="1.958838" cx="0" cy="0"/>
    <ellipse transform="matrix(-1,0,0,1,254.386566,-137.848694)" style="stroke:#000000;stroke-width:0.050000mm;fill:none" rx="5.5" ry="1.958838" cx="0" cy="0"/>
    <ellipse transform="matrix(-1,0,0,1,254.386566,-132.951599)" style="stroke:#000000;stroke-width:0.050000mm;fill:none" rx="5.5" ry="1.958838" cx="0" cy="0"/>
    <ellipse transform="matrix(-1,0,0,1,254.386566,-128.054504)" style="stroke:#000000;stroke-width:0.050000mm;fill:none" rx="5.5" ry="1.958838" cx="0" cy="0"/>
    <ellipse transform="matrix(-1,0,0,1,232.386566,-147.675903)" style="stroke:#000000;stroke-width:0.050000mm;fill:none" rx="5.5" ry="1.958838" cx="0" cy="0"/>
    <ellipse transform="matrix(-1,0,0,1,232.386566,-142.778793)" style="stroke:#000000;stroke-width:0.050000mm;fill:none" rx="5.5" ry="1.958838" cx="0" cy="0"/>
    <ellipse transform="matrix(-1,0,0,1,232.386566,-137.881699)" style="stroke:#000000;stroke-width:0.050000mm;fill:none" rx="5.5" ry="1.958838" cx="0" cy="0"/>
    <ellipse transform="matrix(-1,0,0,1,232.386566,-132.984604)" style="stroke:#000000;stroke-width:0.050000mm;fill:none" rx="5.5" ry="1.958838" cx="0" cy="0"/>
    <ellipse transform="matrix(-1,0,0,1,232.386566,-128.087494)" style="stroke:#000000;stroke-width:0.050000mm;fill:none" rx="5.5" ry="1.958838" cx="0" cy="0"/>
    <ellipse transform="matrix(-1,0,0,1,232.386566,-152.572968)" style="stroke:#000000;stroke-width:0.050000mm;fill:none" rx="5.5" ry="1.958838" cx="0" cy="0"/>
    <ellipse transform="matrix(-1,0,0,1,232.386566,-157.470062)" style="stroke:#000000;stroke-width:0.050000mm;fill:none" rx="5.5" ry="1.958838" cx="0" cy="0"/>
    <ellipse transform="matrix(-1,0,0,1,232.386566,-162.367157)" style="stroke:#000000;stroke-width:0.050000mm;fill:none" rx="5.5" ry="1.958838" cx="0" cy="0"/>
    <ellipse transform="matrix(-1,0,0,1,232.386566,-167.264252)" style="stroke:#000000;stroke-width:0.050000mm;fill:none" rx="5.5" ry="1.958838" cx="0" cy="0"/>
    <rect transform="matrix(-1,0,0,1,232.386566,-147.412537)" style="stroke:#000000;stroke-width:0.050000mm;fill:none" x="-11" y="-142.612839" width="22" height="285.225677"/>
    <ellipse transform="matrix(-1,0,0,1,210.386566,-147.824005)" style="stroke:#000000;stroke-width:0.050000mm;fill:none" rx="5.5" ry="1.958838" cx="0" cy="0"/>
    <ellipse transform="matrix(-1,0,0,1,210.386566,-142.926895)" style="stroke:#000000;stroke-width:0.050000mm;fill:none" rx="5.5" ry="1.958838" cx="0" cy="0"/>
    <ellipse transform="matrix(-1,0,0,1,210.386566,-138.0298)" style="stroke:#000000;stroke-width:0.050000mm;fill:none" rx="5.5" ry="1.958838" cx="0" cy="0"/>
    <ellipse transform="matrix(-1,0,0,1,210.386566,-133.132706)" style="stroke:#000000;stroke-width:0.050000mm;fill:none" rx="5.5" ry="1.958838" cx="0" cy="0"/>
    <ellipse transform="matrix(-1,0,0,1,210.386566,-128.235596)" style="stroke:#000000;stroke-width:0.050000mm;fill:none" rx="5.5" ry="1.958838" cx="0" cy="0"/>
    <ellipse transform="matrix(-1,0,0,1,210.386566,-152.721069)" style="stroke:#000000;stroke-width:0.050000mm;fill:none" rx="5.5" ry="1.958838" cx="0" cy="0"/>
    <ellipse transform="matrix(-1,0,0,1,210.386566,-157.618164)" style="stroke:#000000;stroke-width:0.050000mm;fill:none" rx="5.5" ry="1.958838" cx="0" cy="0"/>
    <ellipse transform="matrix(-1,0,0,1,210.386566,-162.515259)" style="stroke:#000000;stroke-width:0.050000mm;fill:none" rx="5.5" ry="1.958838" cx="0" cy="0"/>
    <ellipse transform="matrix(-1,0,0,1,210.386566,-167.412354)" style="stroke:#000000;stroke-width:0.050000mm;fill:none" rx="5.5" ry="1.958838" cx="0" cy="0"/>
    <rect transform="matrix(-1,0,0,1,210.586578,-147.152222)" style="stroke:#000000;stroke-width:0.050000mm;fill:none" x="-11" y="-142.612839" width="22" height="285.225677"/>
    <ellipse transform="matrix(-1,0,0,1,188.410446,-147.960419)" style="stroke:#000000;stroke-width:0.050000mm;fill:none" rx="5.5" ry="1.958838" cx="0" cy="0"/>
    <ellipse transform="matrix(-1,0,0,1,188.410446,-143.063324)" style="stroke:#000000;stroke-width:0.050000mm;fill:none" rx="5.5" ry="1.958838" cx="0" cy="0"/>
    <ellipse transform="matrix(-1,0,0,1,188.410446,-138.166229)" style="stroke:#000000;stroke-width:0.050000mm;fill:none" rx="5.5" ry="1.958838" cx="0" cy="0"/>
    <ellipse transform="matrix(-1,0,0,1,188.410446,-133.269135)" style="stroke:#000000;stroke-width:0.050000mm;fill:none" rx="5.5" ry="1.958838" cx="0" cy="0"/>
    <ellipse transform="matrix(-1,0,0,1,188.410446,-128.37204)" style="stroke:#000000;stroke-width:0.050000mm;fill:none" rx="5.5" ry="1.958838" cx="0" cy="0"/>
    <ellipse transform="matrix(-1,0,0,1,188.410446,-152.857513)" style="stroke:#000000;stroke-width:0.050000mm;fill:none" rx="5.5" ry="1.958838" cx="0" cy="0"/>
    <ellipse transform="matrix(-1,0,0,1,188.410446,-157.754608)" style="stroke:#000000;stroke-width:0.050000mm;fill:none" rx="5.5" ry="1.958838" cx="0" cy="0"/>
    <ellipse transform="matrix(-1,0,0,1,188.410446,-162.651718)" style="stroke:#000000;stroke-width:0.050000mm;fill:none" rx="5.5" ry="1.958838" cx="0" cy="0"/>
    <ellipse transform="matrix(-1,0,0,1,188.410446,-167.548798)" style="stroke:#000000;stroke-width:0.050000mm;fill:none" rx="5.5" ry="1.958838" cx="0" cy="0"/>
    <rect transform="matrix(-1,0,0,1,188.410446,-147.190948)" style="stroke:#000000;stroke-width:0.050000mm;fill:none" x="-11" y="-142.612839" width="22" height="285.225677"/>
    <ellipse transform="matrix(-1,0,0,1,166.386566,-147.885681)" style="stroke:#000000;stroke-width:0.050000mm;fill:none" rx="5.5" ry="1.958838" cx="0" cy="0"/>
    <ellipse transform="matrix(-1,0,0,1,166.386566,-142.988586)" style="stroke:#000000;stroke-width:0.050000mm;fill:none" rx="5.5" ry="1.958838" cx="0" cy="0"/>
    <ellipse transform="matrix(-1,0,0,1,166.386566,-138.091507)" style="stroke:#000000;stroke-width:0.050000mm;fill:none" rx="5.5" ry="1.958838" cx="0" cy="0"/>
    <ellipse transform="matrix(-1,0,0,1,166.386566,-133.194427)" style="stroke:#000000;stroke-width:0.050000mm;fill:none" rx="5.5" ry="1.958838" cx="0" cy="0"/>
    <ellipse transform="matrix(-1,0,0,1,166.386566,-128.297333)" style="stroke:#000000;stroke-width:0.050000mm;fill:none" rx="5.5" ry="1.958838" cx="0" cy="0"/>
    <ellipse transform="matrix(-1,0,0,1,166.386566,-152.782791)" style="stroke:#000000;stroke-width:0.050000mm;fill:none" rx="5.5" ry="1.958838" cx="0" cy="0"/>
    <ellipse transform="matrix(-1,0,0,1,166.386566,-157.679886)" style="stroke:#000000;stroke-width:0.050000mm;fill:none" rx="5.5" ry="1.958838" cx="0" cy="0"/>
    <ellipse transform="matrix(-1,0,0,1,166.386566,-162.576981)" style="stroke:#000000;stroke-width:0.050000mm;fill:none" rx="5.5" ry="1.958838" cx="0" cy="0"/>
    <ellipse transform="matrix(-1,0,0,1,166.386566,-167.474091)" style="stroke:#000000;stroke-width:0.050000mm;fill:none" rx="5.5" ry="1.958838" cx="0" cy="0"/>
    <rect transform="matrix(-1,0,0,1,166.386566,-147.116211)" style="stroke:#000000;stroke-width:0.050000mm;fill:none" x="-11" y="-142.612839" width="22" height="285.225677"/>
    <ellipse transform="matrix(-1,0,0,1,144.386566,-147.885742)" style="stroke:#000000;stroke-width:0.050000mm;fill:none" rx="5.5" ry="1.958838" cx="0" cy="0"/>
    <ellipse transform="matrix(-1,0,0,1,144.386566,-142.988647)" style="stroke:#000000;stroke-width:0.050000mm;fill:none" rx="5.5" ry="1.958838" cx="0" cy="0"/>
    <ellipse transform="matrix(-1,0,0,1,144.386566,-138.091568)" style="stroke:#000000;stroke-width:0.050000mm;fill:none" rx="5.5" ry="1.958838" cx="0" cy="0"/>
    <ellipse transform="matrix(-1,0,0,1,144.386566,-133.194489)" style="stroke:#000000;stroke-width:0.050000mm;fill:none" rx="5.5" ry="1.958838" cx="0" cy="0"/>
    <ellipse transform="matrix(-1,0,0,1,144.386566,-128.297394)" style="stroke:#000000;stroke-width:0.050000mm;fill:none" rx="5.5" ry="1.958838" cx="0" cy="0"/>
    <ellipse transform="matrix(-1,0,0,1,144.386566,-152.782852)" style="stroke:#000000;stroke-width:0.050000mm;fill:none" rx="5.5" ry="1.958838" cx="0" cy="0"/>
    <ellipse transform="matrix(-1,0,0,1,144.386566,-157.679947)" style="stroke:#000000;stroke-width:0.050000mm;fill:none" rx="5.5" ry="1.958838" cx="0" cy="0"/>
    <ellipse transform="matrix(-1,0,0,1,144.386566,-162.577042)" style="stroke:#000000;stroke-width:0.050000mm;fill:none" rx="5.5" ry="1.958838" cx="0" cy="0"/>
    <ellipse transform="matrix(-1,0,0,1,144.386566,-167.474152)" style="stroke:#000000;stroke-width:0.050000mm;fill:none" rx="5.5" ry="1.958838" cx="0" cy="0"/>
    <rect transform="matrix(-1,0,0,1,144.386566,-147.116272)" style="stroke:#000000;stroke-width:0.050000mm;fill:none" x="-11" y="-142.612839" width="22" height="285.225677"/>
    <rect transform="matrix(-1,0,0,1,122.410828,-147.190948)" style="stroke:#000000;stroke-width:0.050000mm;fill:none" x="-11" y="-142.612839" width="22" height="285.225677"/>
    <ellipse transform="matrix(-1,0,0,1,122.362701,-147.390717)" style="stroke:#000000;stroke-width:0.050000mm;fill:none" rx="5.5" ry="1.958838" cx="0" cy="0"/>
    <ellipse transform="matrix(-1,0,0,1,122.362701,-152.287811)" style="stroke:#000000;stroke-width:0.050000mm;fill:none" rx="5.5" ry="1.958838" cx="0" cy="0"/>
    <ellipse transform="matrix(-1,0,0,1,122.362701,-142.493622)" style="stroke:#000000;stroke-width:0.050000mm;fill:none" rx="5.5" ry="1.958838" cx="0" cy="0"/>
    <ellipse transform="matrix(-1,0,0,1,122.362701,-166.97908)" style="stroke:#000000;stroke-width:0.050000mm;fill:none" rx="5.5" ry="1.958838" cx="0" cy="0"/>
    <ellipse transform="matrix(-1,0,0,1,122.362701,-162.082001)" style="stroke:#000000;stroke-width:0.050000mm;fill:none" rx="5.5" ry="1.958838" cx="0" cy="0"/>
    <ellipse transform="matrix(-1,0,0,1,122.362701,-157.184906)" style="stroke:#000000;stroke-width:0.050000mm;fill:none" rx="5.5" ry="1.958838" cx="0" cy="0"/>
    <ellipse transform="matrix(-1,0,0,1,122.362701,-137.596527)" style="stroke:#000000;stroke-width:0.050000mm;fill:none" rx="5.5" ry="1.958838" cx="0" cy="0"/>
    <ellipse transform="matrix(-1,0,0,1,122.362701,-132.699432)" style="stroke:#000000;stroke-width:0.050000mm;fill:none" rx="5.5" ry="1.958838" cx="0" cy="0"/>
    <ellipse transform="matrix(-1,0,0,1,122.362701,-127.802322)" style="stroke:#000000;stroke-width:0.050000mm;fill:none" rx="5.5" ry="1.958838" cx="0" cy="0"/>
    <ellipse transform="matrix(-1,0,0,1,100.362701,-147.423645)" style="stroke:#000000;stroke-width:0.050000mm;fill:none" rx="5.5" ry="1.958838" cx="0" cy="0"/>
    <ellipse transform="matrix(-1,0,0,1,100.362701,-142.526566)" style="stroke:#000000;stroke-width:0.050000mm;fill:none" rx="5.5" ry="1.958838" cx="0" cy="0"/>
    <ellipse transform="matrix(-1,0,0,1,100.362701,-137.629486)" style="stroke:#000000;stroke-width:0.050000mm;fill:none" rx="5.5" ry="1.958838" cx="0" cy="0"/>
    <ellipse transform="matrix(-1,0,0,1,100.362701,-132.732391)" style="stroke:#000000;stroke-width:0.050000mm;fill:none" rx="5.5" ry="1.958838" cx="0" cy="0"/>
    <ellipse transform="matrix(-1,0,0,1,100.362701,-127.835297)" style="stroke:#000000;stroke-width:0.050000mm;fill:none" rx="5.5" ry="1.958838" cx="0" cy="0"/>
    <ellipse transform="matrix(-1,0,0,1,100.362701,-152.320755)" style="stroke:#000000;stroke-width:0.050000mm;fill:none" rx="5.5" ry="1.958838" cx="0" cy="0"/>
    <ellipse transform="matrix(-1,0,0,1,100.362701,-157.21785)" style="stroke:#000000;stroke-width:0.050000mm;fill:none" rx="5.5" ry="1.958838" cx="0" cy="0"/>
    <ellipse transform="matrix(-1,0,0,1,100.362701,-162.114944)" style="stroke:#000000;stroke-width:0.050000mm;fill:none" rx="5.5" ry="1.958838" cx="0" cy="0"/>
    <ellipse transform="matrix(-1,0,0,1,100.362701,-167.012054)" style="stroke:#000000;stroke-width:0.050000mm;fill:none" rx="5.5" ry="1.958838" cx="0" cy="0"/>
    <rect transform="matrix(-1,0,0,1,100.410828,-147.223877)" style="stroke:#000000;stroke-width:0.050000mm;fill:none" x="-11" y="-142.612839" width="22" height="285.225677"/>
    <ellipse transform="matrix(-1,0,0,1,78.362701,-147.571747)" style="stroke:#000000;stroke-width:0.050000mm;fill:none" rx="5.5" ry="1.958838" cx="0" cy="0"/>
    <ellipse transform="matrix(-1,0,0,1,78.362701,-142.674667)" style="stroke:#000000;stroke-width:0.050000mm;fill:none" rx="5.5" ry="1.958838" cx="0" cy="0"/>
    <ellipse transform="matrix(-1,0,0,1,78.362701,-137.777588)" style="stroke:#000000;stroke-width:0.050000mm;fill:none" rx="5.5" ry="1.958838" cx="0" cy="0"/>
    <ellipse transform="matrix(-1,0,0,1,78.362701,-132.880493)" style="stroke:#000000;stroke-width:0.050000mm;fill:none" rx="5.5" ry="1.958838" cx="0" cy="0"/>
    <ellipse transform="matrix(-1,0,0,1,78.362701,-127.983398)" style="stroke:#000000;stroke-width:0.050000mm;fill:none" rx="5.5" ry="1.958838" cx="0" cy="0"/>
    <ellipse transform="matrix(-1,0,0,1,78.362701,-152.468857)" style="stroke:#000000;stroke-width:0.050000mm;fill:none" rx="5.5" ry="1.958838" cx="0" cy="0"/>
    <ellipse transform="matrix(-1,0,0,1,78.362701,-157.365952)" style="stroke:#000000;stroke-width:0.050000mm;fill:none" rx="5.5" ry="1.958838" cx="0" cy="0"/>
    <ellipse transform="matrix(-1,0,0,1,78.362701,-162.263046)" style="stroke:#000000;stroke-width:0.050000mm;fill:none" rx="5.5" ry="1.958838" cx="0" cy="0"/>
    <ellipse transform="matrix(-1,0,0,1,78.362701,-167.160172)" style="stroke:#000000;stroke-width:0.050000mm;fill:none" rx="5.5" ry="1.958838" cx="0" cy="0"/>
    <rect transform="matrix(-1,0,0,1,78.618164,-147.190948)" style="stroke:#000000;stroke-width:0.050000mm;fill:none" x="-11" y="-142.612839" width="22" height="285.225677"/>
    <ellipse transform="matrix(-1,0,0,1,56.386566,-147.708252)" style="stroke:#000000;stroke-width:0.050000mm;fill:none" rx="5.5" ry="1.958838" cx="0" cy="0"/>
    <ellipse transform="matrix(-1,0,0,1,56.386566,-142.811157)" style="stroke:#000000;stroke-width:0.050000mm;fill:none" rx="5.5" ry="1.958838" cx="0" cy="0"/>
    <ellipse transform="matrix(-1,0,0,1,56.386566,-137.914063)" style="stroke:#000000;stroke-width:0.050000mm;fill:none" rx="5.5" ry="1.958838" cx="0" cy="0"/>
    <ellipse transform="matrix(-1,0,0,1,56.386566,-133.016968)" style="stroke:#000000;stroke-width:0.050000mm;fill:none" rx="5.5" ry="1.958838" cx="0" cy="0"/>
    <ellipse transform="matrix(-1,0,0,1,56.386566,-128.119873)" style="stroke:#000000;stroke-width:0.050000mm;fill:none" rx="5.5" ry="1.958838" cx="0" cy="0"/>
    <ellipse transform="matrix(-1,0,0,1,56.386566,-152.605347)" style="stroke:#000000;stroke-width:0.050000mm;fill:none" rx="5.5" ry="1.958838" cx="0" cy="0"/>
    <ellipse transform="matrix(-1,0,0,1,56.386566,-157.502441)" style="stroke:#000000;stroke-width:0.050000mm;fill:none" rx="5.5" ry="1.958838" cx="0" cy="0"/>
    <ellipse transform="matrix(-1,0,0,1,56.386566,-162.399536)" style="stroke:#000000;stroke-width:0.050000mm;fill:none" rx="5.5" ry="1.958838" cx="0" cy="0"/>
    <ellipse transform="matrix(-1,0,0,1,56.386566,-167.296646)" style="stroke:#000000;stroke-width:0.050000mm;fill:none" rx="5.5" ry="1.958838" cx="0" cy="0"/>
    <rect transform="matrix(-1,0,0,1,56.434692,-147.190948)" style="stroke:#000000;stroke-width:0.050000mm;fill:none" x="-11" y="-142.612839" width="22" height="285.225677"/>
    <ellipse transform="matrix(-1,0,0,1,34.362701,-147.633514)" style="stroke:#000000;stroke-width:0.050000mm;fill:none" rx="5.5" ry="1.958838" cx="0" cy="0"/>
    <ellipse transform="matrix(-1,0,0,1,34.362701,-142.73642)" style="stroke:#000000;stroke-width:0.050000mm;fill:none" rx="5.5" ry="1.958838" cx="0" cy="0"/>
    <ellipse transform="matrix(-1,0,0,1,34.362701,-137.839325)" style="stroke:#000000;stroke-width:0.050000mm;fill:none" rx="5.5" ry="1.958838" cx="0" cy="0"/>
    <ellipse transform="matrix(-1,0,0,1,34.362701,-132.942245)" style="stroke:#000000;stroke-width:0.050000mm;fill:none" rx="5.5" ry="1.958838" cx="0" cy="0"/>
    <ellipse transform="matrix(-1,0,0,1,34.362701,-128.045151)" style="stroke:#000000;stroke-width:0.050000mm;fill:none" rx="5.5" ry="1.958838" cx="0" cy="0"/>
    <ellipse transform="matrix(-1,0,0,1,34.362701,-152.530609)" style="stroke:#000000;stroke-width:0.050000mm;fill:none" rx="5.5" ry="1.958838" cx="0" cy="0"/>
    <ellipse transform="matrix(-1,0,0,1,34.362701,-157.427719)" style="stroke:#000000;stroke-width:0.050000mm;fill:none" rx="5.5" ry="1.958838" cx="0" cy="0"/>
    <ellipse transform="matrix(-1,0,0,1,34.362701,-162.324814)" style="stroke:#000000;stroke-width:0.050000mm;fill:none" rx="5.5" ry="1.958838" cx="0" cy="0"/>
    <ellipse transform="matrix(-1,0,0,1,34.362701,-167.221893)" style="stroke:#000000;stroke-width:0.050000mm;fill:none" rx="5.5" ry="1.958838" cx="0" cy="0"/>
    <rect transform="matrix(-1,0,0,1,34.307175,-147.190948)" style="stroke:#000000;stroke-width:0.050000mm;fill:none" x="-11" y="-142.612839" width="22" height="285.225677"/>
    <ellipse transform="matrix(-1,0,0,1,12.362701,-147.633575)" style="stroke:#000000;stroke-width:0.050000mm;fill:none" rx="5.5" ry="1.958838" cx="0" cy="0"/>
    <ellipse transform="matrix(-1,0,0,1,12.362701,-142.736481)" style="stroke:#000000;stroke-width:0.050000mm;fill:none" rx="5.5" ry="1.958838" cx="0" cy="0"/>
    <ellipse transform="matrix(-1,0,0,1,12.362701,-137.839386)" style="stroke:#000000;stroke-width:0.050000mm;fill:none" rx="5.5" ry="1.958838" cx="0" cy="0"/>
    <ellipse transform="matrix(-1,0,0,1,12.362701,-132.942291)" style="stroke:#000000;stroke-width:0.050000mm;fill:none" rx="5.5" ry="1.958838" cx="0" cy="0"/>
    <ellipse transform="matrix(-1,0,0,1,12.362701,-128.045212)" style="stroke:#000000;stroke-width:0.050000mm;fill:none" rx="5.5" ry="1.958838" cx="0" cy="0"/>
    <ellipse transform="matrix(-1,0,0,1,12.362701,-152.53067)" style="stroke:#000000;stroke-width:0.050000mm;fill:none" rx="5.5" ry="1.958838" cx="0" cy="0"/>
    <ellipse transform="matrix(-1,0,0,1,12.362701,-157.42778)" style="stroke:#000000;stroke-width:0.050000mm;fill:none" rx="5.5" ry="1.958838" cx="0" cy="0"/>
    <ellipse transform="matrix(-1,0,0,1,12.362701,-162.324875)" style="stroke:#000000;stroke-width:0.050000mm;fill:none" rx="5.5" ry="1.958838" cx="0" cy="0"/>
    <ellipse transform="matrix(-1,0,0,1,12.362701,-167.22197)" style="stroke:#000000;stroke-width:0.050000mm;fill:none" rx="5.5" ry="1.958838" cx="0" cy="0"/>
    <rect transform="matrix(-1,0,0,1,12.30719,-147.190948)" style="stroke:#000000;stroke-width:0.050000mm;fill:none" x="-11" y="-142.612839" width="22" height="285.225677"/>
</svg>
